<svg id="logo" xmlns="http://www.w3.org/2000/svg" viewBox="0 0 155.87 21.71">
   <defs>
      <style>.cls-1{fill:#fff;}.cls-2{fill:#dc0528;fill-rule:evenodd;}</style>
   </defs>
   <title>n_BEKB_RGB_DF</title>
   <polygon class="cls-1" points="0.14 0.19 21.42 0.19 21.42 21.55 0.14 21.55 0.14 0.19"/>
   <path class="cls-2" d="M0,0H21.57V21.71H0V0ZM4.27,4.3H17.33V17.42H4.27V4.3Z"/>
   <polygon points="9.03 5.18 16.43 5.18 12.66 10.87 16.43 16.61 9.03 16.61 5.16 10.91 9.03 5.18"/>
   <rect x="94.21" width="0.7" height="21.71"/>
   <path d="M32.75,5.45h4a2.67,2.67,0,0,1,3,2.71,2.42,2.42,0,0,1-2,2.49v0A2.41,2.41,0,0,1,40,13.31c0,2.76-2.72,3-3.36,3H32.75Zm2.46,4.42h.62a1.32,1.32,0,0,0,1.51-1.34,1.31,1.31,0,0,0-1.46-1.31h-.67Zm0,4.61h.72a1.4,1.4,0,0,0,1.63-1.4,1.27,1.27,0,0,0-1.37-1.43h-1Z"/>
   <path d="M47.42,5.45h6.27v1.9H49.88V9.78h3.63v1.9H49.88v2.74h4v1.9H47.42Z"/>
   <path d="M61.8,5.45h2.55V9.93h0l2.68-4.48h2.86l-3.36,5.09,3.63,5.78h-3l-2.75-5h0v5H61.81V5.45Z"/>
   <path d="M76.57,5.45h4.05a2.67,2.67,0,0,1,3,2.71,2.42,2.42,0,0,1-2,2.49v0a2.41,2.41,0,0,1,2.18,2.63c0,2.76-2.72,3-3.36,3H76.57V5.45ZM79,9.87h.62a1.32,1.32,0,0,0,1.51-1.34A1.31,1.31,0,0,0,79.7,7.22H79V9.87Zm0,4.61h.72a1.4,1.4,0,0,0,1.63-1.4A1.27,1.27,0,0,0,80,11.65H79v2.83Z"/>
   <path d="M105.66,5.45h4a2.67,2.67,0,0,1,3,2.71,2.42,2.42,0,0,1-2,2.49v0a2.41,2.41,0,0,1,2.18,2.63c0,2.76-2.72,3-3.36,3h-3.91V5.45Zm2.46,4.42h.62a1.32,1.32,0,0,0,1.51-1.34,1.31,1.31,0,0,0-1.46-1.31h-.67V9.87Zm0,4.61h.72a1.4,1.4,0,0,0,1.63-1.4,1.27,1.27,0,0,0-1.37-1.43h-1v2.83Z"/>
   <path d="M126.65,7.91a4,4,0,0,0-2.21-.62c-1.71,0-2.8,1.38-2.8,3.58s1.23,3.55,2.85,3.55a4.72,4.72,0,0,0,2.23-.57l.09,2.27a8.68,8.68,0,0,1-2.72.39c-3,0-5.06-2.22-5.06-5.66,0-4,2.68-5.57,4.89-5.57a6.71,6.71,0,0,1,2.86.53Z"/>
   <path d="M134.57,5.45h4a2.67,2.67,0,0,1,3,2.71,2.42,2.42,0,0,1-2,2.49v0a2.41,2.41,0,0,1,2.18,2.63c0,2.76-2.72,3-3.36,3h-3.9V5.45ZM137,9.87h.62a1.32,1.32,0,0,0,1.51-1.34,1.31,1.31,0,0,0-1.46-1.31H137V9.87Zm0,4.61h.72a1.4,1.4,0,0,0,1.63-1.4A1.27,1.27,0,0,0,138,11.65h-1v2.83Z"/>
   <path d="M149.41,5.45h6.27v1.9h-3.81V9.78h3.62v1.9h-3.62v2.74h4v1.9h-6.46Z"/>
</svg>