<svg xmlns="http://www.w3.org/2000/svg" width="465.4" height="465" viewBox="0 0 465.4 465">
    <title>mastercard</title>
    <g id="Ebene_2_1_">
      <g id="cut">
        <rect y="0" fill="none" width="465" height="465" />
      </g>
      <g id="produkte">
        <path
          fill="#F0F2F5"
          d="M352.5,76.5l-242.9,141C89.4,229.2,73,258.3,73,282.2v154.6c0,23.9,16.4,33.8,36.7,22.1l242.9-141
			c20.2-11.7,36.7-40.8,36.7-64.7V98.6C389.2,74.6,372.7,64.7,352.5,76.5z"
        />
        <path
          fill="#C4CCD4"
          d="M76.8,361.1V438c0,23.8,16.4,33.6,36.7,22l242.8-140.2c20.2-11.7,36.7-40.5,36.7-64.3v-76.9L76.8,361.1z"
        />
        <path
          fill="#D4D9DE"
          d="M393,178.6v-76.9c0-23.8-16.5-33.7-36.7-22L113.4,220c-20.2,11.7-36.7,40.5-36.7,64.3v76.9L393,178.6z"
        />
        <path
          id="_Zusammengesetzter_Pfad_"
          d="M187.6,369.8v-8c0-3-1.6-4.1-4.3-2.6c-1.8,1-3.1,2.6-3.8,4.5c-0.8-1-1.9-1.2-3.6-0.2
			c-1.5,0.9-2.6,2.2-3.2,3.7v-1.6l-2.4,1.4v12.8l2.4-1.4v-7.1c-0.1-2,0.9-3.9,2.7-4.9c1.6-0.9,2.4-0.2,2.4,2v7.1l2.4-1.4V367
			c-0.1-2,1-3.9,2.7-4.9c1.6-0.9,2.4-0.2,2.4,2v7.1L187.6,369.8z M223,336.6l-3.9,2.2v-3.9l-2.4,1.4v3.9l-2.2,1.3v2.5l2.2-1.3v5.8
			c0,3,1,4.2,3.8,2.5c1.2-0.7,2.2-1.6,3-2.7l-0.7-2c-0.6,0.8-1.3,1.4-2.1,1.9c-1.2,0.7-1.6,0-1.6-1.2v-5.8l3.9-2.2L223,336.6z
			 M243.2,324.6c-1.3,0.8-2.3,2.1-2.9,3.5v-1.5l-2.3,1.4v12.8l2.4-1.4v-7.2c-0.2-1.9,0.7-3.6,2.3-4.6c0.5-0.3,1-0.5,1.5-0.5l0.7-3
			C244.3,324.1,243.7,324.3,243.2,324.6L243.2,324.6z M212.7,343.6c-1.6-0.1-3.1,0.3-4.4,1.2c-2.8,1.6-4.5,4.2-4.5,6.7
			c0,2.1,1.3,2.6,3.8,1.6l1.1-0.5c1.3-0.5,1.9-0.5,1.9,0.2c0,1-0.9,2-2.5,3c-1,0.8-2.4,1-3.6,0.8l-1.1,2.8c1.3,0.4,2.9,0,4.7-1
			c3.1-1.8,5-4.6,5-7c0-2.2-1.4-2.6-3.8-1.6l-1.1,0.5c-1,0.4-1.8,0.7-1.8-0.2c0.2-1.2,1-2.2,2.1-2.7c1-0.6,2.2-0.9,3.4-0.9
			L212.7,343.6z M276.1,305.6c-1.3,0.8-2.3,2.1-2.9,3.5v-1.6l-2.4,1.4v12.8l2.4-1.4v-7.2c-0.2-1.9,0.7-3.6,2.3-4.6
			c0.4-0.3,0.9-0.5,1.5-0.6l0.7-3C277.1,305.1,276.6,305.3,276.1,305.6L276.1,305.6z M245.6,330c0,3.9,2.3,5.4,5.8,3.4
			c1.6-0.9,3-2.2,3.9-3.8l-1.1-1.6c-0.7,1.1-1.7,2.1-2.8,2.8c-1.9,1.1-3.3,0.3-3.3-2.2c0-2.4,1.2-4.7,3.3-6c0.8-0.6,1.9-0.7,2.8-0.5
			l1.1-2.9c-1.2-0.4-2.3-0.2-3.9,0.7C247.8,322.1,245.6,325.9,245.6,330L245.6,330z M267.7,317.2v-6.4l-2.4,1.4v1.5
			c-0.8-0.7-1.9-0.8-3.4,0.1c-3.3,2.2-5.4,5.9-5.4,9.9c0,3.9,2.4,5.4,5.4,3.6c1.5-0.9,2.7-2.3,3.4-3.9v1.5l2.4-1.4V317.2z
			 M258.9,322.3c0-2.4,1.3-4.7,3.3-6c2-1.1,3.3-0.1,3.3,2.2c0,2.4-1.2,4.7-3.3,6C260.2,325.7,258.9,324.6,258.9,322.3L258.9,322.3z
			 M230.3,332c-3.4,2.1-5.4,5.9-5.4,9.9c0,4.1,2.3,5.4,5.6,3.5c1.8-1.1,3.4-2.6,4.5-4.4l-1.2-1.4c-0.8,1.3-1.9,2.4-3.2,3.2
			c-1.5,0.9-2.9,0.9-3.2-1.2l8.1-4.7c0-0.4,0-0.7,0-1.1C235.5,331.8,233.4,330.3,230.3,332L230.3,332z M230.3,334.5
			c1.5-0.9,2.5-0.3,2.8,1.5l-5.6,3.3C227.6,337.3,228.7,335.6,230.3,334.5L230.3,334.5z M289.7,304.5v-11.5l-2.4,1.4v6.7
			c-0.8-0.7-1.9-0.8-3.4,0.1c-3.3,2.2-5.4,5.9-5.4,9.9c0,3.9,2.4,5.3,5.4,3.6c1.5-0.9,2.7-2.3,3.4-3.9v1.6l2.4-1.4V304.5z
			 M280.9,309.6c0-2.4,1.3-4.7,3.3-6c2-1.1,3.3-0.1,3.3,2.2c0,2.4-1.2,4.7-3.3,6C282.2,312.9,280.9,311.8,280.9,309.6L280.9,309.6z
			 M201,355.7v-6.4l-2.4,1.4v1.5c-0.8-0.7-1.9-0.8-3.4,0.1c-3.3,2.2-5.4,5.9-5.4,9.9c0,3.9,2.4,5.4,5.4,3.6c1.5-0.9,2.7-2.3,3.4-3.9
			v1.6l2.4-1.4V355.7z M192.2,360.8c0-2.4,1.3-4.7,3.3-6c1.9-1.1,3.3-0.1,3.3,2.2c0,2.4-1.2,4.7-3.3,6
			C193.4,364.2,192.1,363.1,192.2,360.8L192.2,360.8z"
        />
        <g id="_Gruppe_">
          <polygon fill="#EA5821" points="247.7,300.6 211.9,321.3 211.9,245.5 247.7,224.8 			" />
          <path
            id="_Pfad_"
            fill="#E52626"
            d="M214.1,282c0-15.4,6.1-32.6,15.7-46.9c-7-2.4-15.8-1.2-25.3,4.3c-22.6,13.1-41,45.2-41,71.9
				s18.3,37.6,41,24.5c9.6-5.5,18.4-14.5,25.3-24.9C220.2,307.6,214.1,297.4,214.1,282z"
          />
          <path
            fill="#F18810"
            d="M296.1,234.7c0,26.6-18.4,58.8-41,71.9c-9.6,5.5-18.4,6.7-25.3,4.3c9.5-14.3,15.6-31.6,15.6-46.9
				s-6.1-25.5-15.6-28.9c7-10.5,15.8-19.4,25.3-24.9C277.7,197.1,296.1,208.1,296.1,234.7z"
          />
        </g>
      </g>
    </g>
  </svg>